<svg width="3207" height="290" viewBox="0 0 3207 290" fill="none" xmlns="http://www.w3.org/2000/svg">
<g filter="url(#filter0_i_196_45)">
<path d="M-503 89.779C-503 89.779 -379.564 15.115 -209.449 8.64029C-9.83551 1.04293 -12.071 88.057 189.781 89.779C400.604 91.5775 407.436 9.31736 618.366 8.64029C832.953 7.9515 844.332 92.2969 1058.69 89.779C1260.44 87.4093 1256.28 11.4812 1457.92 8.64029C1674.94 5.58281 1689.7 90.459 1907.06 89.779C2120.73 89.1105 2130.8 9.63449 2344.45 8.64029C2563.63 7.62034 2581.18 94.8091 2799.45 89.779C2993.59 85.3051 2981.89 14.9176 3175.2 8.64029C3404.69 1.18823 3436.96 88.4175 3668.37 89.779C3908.42 91.1914 3947.86 7.71022 4187.95 8.64029C4422.26 9.54797 4455.93 86.655 4689.93 89.779C4945.36 93.1893 5003.42 -0.595323 5256.48 8.64029C5476.67 16.6765 5688 100.646 5688 100.646V139.471V290H-503V89.779Z" fill="url(#paint0_linear_196_45)"/>
</g>
<path d="M-503 89.779L-505.07 86.3564L-507 87.5237V89.779V290V294H-503H5688H5692V290V139.471V100.646V97.931L5689.48 96.9285L5688 100.646C5689.48 96.9285 5689.48 96.9279 5689.47 96.9271L5689.47 96.9237L5689.43 96.9113L5689.31 96.8638L5688.85 96.6798C5688.43 96.5181 5687.82 96.2793 5687.01 95.9682C5685.4 95.346 5683 94.4348 5679.89 93.2735C5673.65 90.9509 5664.5 87.6281 5652.84 83.6175C5629.52 75.5968 5596.14 64.8231 5555.87 53.7986C5475.35 31.7573 5367.14 8.67646 5256.63 4.64296C5129.47 0.00241661 5051.22 21.2723 4973.02 43.1733L4969.14 44.2578C4892.42 65.7543 4814.99 87.4484 4689.98 85.7794C4574.54 84.2381 4508.19 64.6333 4441.92 45.0534L4440.19 44.5424C4373.1 24.7213 4305.68 5.09632 4187.97 4.64032C4067.53 4.17379 3997.24 24.8734 3927.36 45.4524L3927.01 45.5534C3857.26 66.0946 3787.83 86.4818 3668.39 85.7791C3556.39 85.1201 3491.4 64.2693 3427.53 43.7772L3422.29 42.0953C3356.42 20.9893 3290.48 0.894905 3175.07 4.6424C3078.37 7.78241 3032.43 26.9069 2986.99 45.8195L2986.1 46.1931C2940.85 65.0275 2895.75 83.5587 2799.36 85.7801C2690.93 88.2789 2632.51 67.9161 2573.64 46.9454L2571.64 46.2336C2513.07 25.3653 2453.48 4.13291 2344.43 4.64034C2237.04 5.14008 2180.62 25.3919 2124.55 45.5166L2124.41 45.567C2068.66 65.5778 2013.22 85.4468 1907.04 85.779C1799.84 86.1144 1742.38 65.5482 1684.97 45.0037L1683.71 44.552C1625.53 23.7314 1567.07 3.1022 1457.87 4.64069C1356.47 6.06918 1306.59 25.9034 1257.04 45.6006L1256.87 45.6693C1207.71 65.2133 1158.83 84.6025 1058.65 85.7793C952.165 87.03 896.256 66.7528 839.99 46.1397L839.104 45.8148C782.756 25.1707 725.778 4.29549 618.354 4.64031C512.976 4.97857 458.047 25.5938 403.834 45.9402L402.628 46.393C348.413 66.7381 294.526 86.6724 189.816 85.7791C92.0813 84.9454 42.743 64.0221 -5.5376 43.5474C-6.72989 43.0418 -7.92154 42.5364 -9.11325 42.0317C-59.0338 20.8871 -108.99 0.813891 -209.601 4.64319C-295.193 7.90088 -369.01 28.3092 -421.418 47.8907C-447.628 57.6838 -468.503 67.2775 -482.841 74.4324C-490.011 78.0102 -495.548 80.979 -499.302 83.0593C-501.18 84.0995 -502.612 84.9176 -503.579 85.4788C-504.063 85.7593 -504.431 85.9757 -504.68 86.1234C-504.804 86.1973 -504.9 86.254 -504.965 86.293L-505.04 86.3382L-505.061 86.3507L-505.067 86.3544C-505.069 86.3555 -505.07 86.3564 -503 89.779Z" stroke="#00719D" stroke-opacity="0.5" stroke-width="8"/>
<defs>
<filter id="filter0_i_196_45" x="-511" y="0.000366211" width="6207" height="302" filterUnits="userSpaceOnUse" color-interpolation-filters="sRGB">
<feFlood flood-opacity="0" result="BackgroundImageFix"/>
<feBlend mode="normal" in="SourceGraphic" in2="BackgroundImageFix" result="shape"/>
<feColorMatrix in="SourceAlpha" type="matrix" values="0 0 0 0 0 0 0 0 0 0 0 0 0 0 0 0 0 0 127 0" result="hardAlpha"/>
<feOffset dy="19"/>
<feGaussianBlur stdDeviation="2"/>
<feComposite in2="hardAlpha" operator="arithmetic" k2="-1" k3="1"/>
<feColorMatrix type="matrix" values="0 0 0 0 0 0 0 0 0 0 0 0 0 0 0 0 0 0 0.7 0"/>
<feBlend mode="normal" in2="shape" result="effect1_innerShadow_196_45"/>
</filter>
<linearGradient id="paint0_linear_196_45" x1="2592.5" y1="8" x2="2592.5" y2="290" gradientUnits="userSpaceOnUse">
<stop offset="1" stop-color="#00719D"/>
</linearGradient>
</defs>
</svg>
